# Blender 4.0.2
# www.blender.org
mtllib rocks.mtl
o Rock_3
v 2.429839 0.316936 -0.827677
v 2.177947 0.316936 -1.226366
v 1.567752 0.475601 -0.274816
v 1.281412 0.316328 -0.623508
v 1.613515 0.475601 -1.019960
v 2.032194 0.555490 -0.265544
v 2.252002 0.475601 -0.543675
v 1.871787 0.475601 -1.345852
v 2.522037 0.007739 -0.839244
v 2.226216 0.007740 -1.307463
v 1.469408 0.007739 -0.131308
v 1.173588 0.007740 -0.599526
v 1.528669 0.007740 -1.096238
v 2.070839 0.007739 -0.119304
v 2.355481 0.007739 -0.479470
v 1.863121 0.007740 -1.518252
v 0.911126 0.197217 -1.391427
v 0.818751 0.197217 -1.385581
v 1.074193 0.300683 -0.743804
v 0.799241 0.196820 -0.639069
v 0.622989 0.300683 -0.926594
v 1.176222 0.352777 -1.029027
v 1.049839 0.300683 -1.222594
v 0.760318 0.300683 -1.179389
v 0.923091 0.007740 -1.450827
v 0.763098 0.007740 -1.411846
v 1.142528 0.007740 -0.653248
v 0.791712 0.007740 -0.567435
v 0.558238 0.007740 -0.889954
v 1.274649 0.007740 -1.022600
v 1.110990 0.007740 -1.273257
v 0.648951 0.007740 -1.162997
v 0.740805 0.197217 0.068013
v 0.754811 0.197217 0.159505
v 1.371434 0.300683 -0.151789
v 1.500118 0.196819 0.112803
v 1.229337 0.300683 0.313836
v 1.078296 0.352777 -0.228148
v 0.896685 0.300683 -0.085113
v 1.021056 0.274178 0.349921
v 0.680577 0.007739 0.061358
v 0.733580 0.007739 0.217268
v 1.455581 0.007739 -0.227877
v 1.572136 0.007739 0.113958
v 1.271569 0.007739 0.375086
v 1.075978 0.007739 -0.326757
v 0.840802 0.007739 -0.141534
v 1.047250 0.007739 0.459397
vn -0.2956 0.9551 -0.0182
vn 0.0617 0.9947 -0.0827
vn 0.4709 0.8467 -0.2479
vn -0.0000 -1.0000 -0.0000
vn 0.7773 0.2301 0.5855
vn -0.0399 0.2763 0.9602
vn 0.8782 0.2488 0.4085
vn -0.7996 0.3217 0.5071
vn 0.4781 0.2943 -0.8275
vn -0.7615 0.2365 -0.6035
vn -0.7903 0.2342 -0.5662
vn 0.8158 0.2625 -0.5154
vn -0.1112 0.9551 0.2745
vn -0.0815 0.9897 -0.1175
vn -0.0607 0.8794 -0.4722
vn 0.8002 0.2383 -0.5504
vn 0.8948 0.2860 0.3428
vn 0.6624 0.2606 -0.7024
vn 0.2229 0.3360 0.9151
vn -0.8645 0.3074 -0.3978
vn -0.8922 0.2332 -0.3869
vn -0.7849 0.2455 0.5689
vn -0.1700 0.2359 -0.9568
vn 0.2833 0.9551 0.0864
vn -0.1432 0.9825 0.1194
vn -0.3998 0.9042 0.1506
vn -0.6191 0.2383 -0.7483
vn 0.2622 0.2860 -0.9217
vn -0.7583 0.2606 -0.5975
vn 0.8918 0.3360 -0.3031
vn -0.5984 0.2702 0.7543
vn 0.2372 0.3100 0.9207
vn 0.6362 0.2455 0.7314
vn -0.9380 0.2359 0.2541
s 1
usemtl Stone_Dark
f 5//1 4//1 3//1 6//1
f 8//2 5//2 6//2 7//2
f 2//3 8//3 7//3 1//3
f 13//4 14//4 11//4 12//4
f 16//4 15//4 14//4 13//4
f 10//4 9//4 15//4 16//4
f 6//5 14//5 15//5 7//5
f 3//6 11//6 14//6 6//6
f 7//7 15//7 9//7 1//7
f 4//8 12//8 11//8 3//8
f 2//9 10//9 16//9 8//9
f 8//10 16//10 13//10 5//10
f 5//11 13//11 12//11 4//11
f 1//12 9//12 10//12 2//12
f 21//13 20//13 19//13 22//13
f 24//14 21//14 22//14 23//14
f 18//15 24//15 23//15 17//15
f 29//4 30//4 27//4 28//4
f 32//4 31//4 30//4 29//4
f 26//4 25//4 31//4 32//4
f 22//16 30//16 31//16 23//16
f 19//17 27//17 30//17 22//17
f 23//18 31//18 25//18 17//18
f 20//19 28//19 27//19 19//19
f 18//20 26//20 32//20 24//20
f 24//21 32//21 29//21 21//21
f 21//22 29//22 28//22 20//22
f 17//23 25//23 26//23 18//23
f 37//24 36//24 35//24 38//24
f 40//25 37//25 38//25 39//25
f 34//26 40//26 39//26 33//26
f 45//4 46//4 43//4 44//4
f 48//4 47//4 46//4 45//4
f 42//4 41//4 47//4 48//4
f 38//27 46//27 47//27 39//27
f 35//28 43//28 46//28 38//28
f 39//29 47//29 41//29 33//29
f 36//30 44//30 43//30 35//30
f 34//31 42//31 48//31 40//31
f 40//32 48//32 45//32 37//32
f 37//33 45//33 44//33 36//33
f 33//34 41//34 42//34 34//34
