# Blender 4.0.2
# www.blender.org
mtllib shell.mtl
o Mesh_Snail.001
v -0.326302 0.754076 0.578174
v -0.310830 0.901252 0.502450
v -0.497551 0.754076 0.872218
v -0.469205 1.026021 0.637342
v -0.687758 0.754076 0.898829
v -0.610478 1.109389 0.632855
vn 0.7960 0.3045 0.5231
vn 0.2007 0.5904 0.7818
vt 0.784697 0.643061
vt 0.796471 0.671198
vt 0.760048 0.695051
vt 0.725848 0.643061
vt 0.743954 0.710990
vt 0.699889 0.643061
s 0
usemtl blinn1SG
f 1/1/1 2/2/1 4/3/1 3/4/1
f 3/4/2 4/3/2 6/5/2 5/6/2
o Mesh_Snail.002
v -0.099893 0.901252 0.232115
v -0.062391 0.754076 0.184053
v -0.099893 0.606901 0.232115
v -0.190431 0.545939 0.348148
v -0.280969 0.606901 0.464180
v -0.326302 0.754076 0.578174
v -0.310830 0.901252 0.502450
v -0.190431 0.962214 0.348148
v -0.056158 1.026021 0.107984
v 0.013137 0.754076 0.019177
v -0.056158 0.482132 0.107984
v -0.223450 0.369488 0.322384
v -0.390742 0.482132 0.536784
v -0.497551 0.754076 0.872218
v -0.469205 1.026021 0.637342
v -0.223450 1.138664 0.322384
v -0.094859 1.109389 -0.027958
v -0.004321 0.754076 -0.143990
v -0.094859 0.398763 -0.027958
v -0.313436 0.251588 0.252169
v -0.532014 0.398763 0.532296
v -0.687758 0.754076 0.898829
v -0.610478 1.109389 0.632855
v -0.313436 1.256565 0.252169
v -0.182997 1.138664 -0.133862
v -0.084999 0.754076 -0.259455
v -0.182997 0.369488 -0.133862
v -0.419583 0.210187 0.169345
v -0.656170 0.369488 0.472552
v -0.841800 0.754076 0.840095
v -0.734633 1.138664 0.573111
v -0.419583 1.297966 0.169345
v -0.307153 1.109389 -0.193606
v -0.216615 0.754076 -0.309639
v -0.307153 0.398763 -0.193606
v -0.525730 0.251588 0.086521
v -0.744308 0.398763 0.366648
v -0.936225 0.754076 0.704956
v -0.822771 1.109389 0.467206
v -0.525730 1.256565 0.086521
v -0.448425 1.026021 -0.198094
v -0.379130 0.754076 -0.286901
v -0.448425 0.482132 -0.198094
v -0.615717 0.369488 0.016306
v -0.783009 0.482132 0.230706
v -0.956658 0.754076 0.513987
v -0.861472 1.026021 0.331264
v -0.615717 1.138664 0.016306
v -0.614058 0.901252 -0.169077
v -0.576556 0.754076 -0.217139
v -0.614058 0.606901 -0.169077
v -0.704596 0.545939 -0.053044
v -0.795133 0.606901 0.062988
v -0.867576 0.754076 0.155829
v -0.803878 0.901252 0.081822
v -0.704596 0.962214 -0.053044
v -0.193915 0.754076 0.345430
v -0.736762 0.754076 -0.081528
v -0.416513 0.754076 0.569812
v -0.808780 0.754076 0.263734
v -0.332885 0.399160 0.692321
v -0.568271 0.399160 0.875630
v -0.739070 0.399160 0.917386
v -0.870218 0.399160 0.876515
v -0.941749 0.399160 0.759239
v -0.942774 0.399160 0.583414
v -0.822196 0.399160 0.310523
v -0.432847 0.736465 0.575538
v -0.574119 0.653097 0.571051
v -0.698275 0.623821 0.511307
v -0.786412 0.653097 0.405402
v -0.825114 0.736465 0.269460
vn 0.9050 0.0952 0.4146
vn 0.9050 -0.0952 0.4146
vn 0.8222 -0.2299 0.5207
vn 0.7050 -0.2299 0.6709
vn 0.4267 -0.2341 0.8736
vn 0.7258 0.2257 0.6498
vn 0.8222 0.2299 0.5207
vn 0.9555 0.2768 -0.1022
vn 0.9555 -0.2768 -0.1022
vn 0.7146 -0.6684 0.2064
vn 0.3740 -0.6684 0.6430
vn 0.4166 0.6958 0.5850
vn 0.7146 0.6684 0.2064
vn 0.7622 0.3681 -0.5325
vn 0.7622 -0.3681 -0.5325
vn 0.4419 -0.8887 -0.1221
vn -0.0110 -0.8887 0.4583
vn -0.2568 0.6062 0.7527
vn 0.0403 0.9196 0.3907
vn 0.4419 0.8887 -0.1221
vn 0.3313 0.3681 -0.8688
vn 0.3313 -0.3681 -0.8688
vn 0.0110 -0.8887 -0.4583
vn -0.4419 -0.8887 0.1221
vn -0.7054 0.5308 0.4698
vn -0.3888 0.9196 0.0559
vn 0.0110 0.8887 -0.4583
vn -0.1331 0.2768 -0.9516
vn -0.1331 -0.2768 -0.9516
vn -0.3740 -0.6684 -0.6430
vn -0.7146 -0.6684 -0.2064
vn -0.9297 0.3604 0.0763
vn -0.6687 0.6958 -0.2619
vn -0.3740 0.6684 -0.6430
vn -0.3252 0.2177 -0.9203
vn -0.3252 -0.2177 -0.9203
vn -0.5145 -0.5255 -0.6776
vn -0.7823 -0.5255 -0.3344
vn -0.9565 -0.2624 0.1273
vn -0.9438 0.1938 -0.2676
vn -0.7694 0.5002 -0.3971
vn -0.5145 0.5255 -0.6776
vn 0.7751 -0.0088 0.6317
vn 0.7751 0.0088 0.6317
vn 0.7828 0.0212 0.6219
vn 0.7936 0.0212 0.6081
vn 0.8635 -0.1145 0.4912
vn 0.8579 0.1609 0.4880
vn 0.7923 -0.0212 0.6098
vn 0.7828 -0.0212 0.6219
vn -0.6438 0.0843 -0.7605
vn -0.6438 -0.0843 -0.7605
vn -0.7178 -0.2021 -0.6663
vn -0.8207 -0.2001 -0.5352
vn -0.8689 -0.1256 -0.4789
vn -0.8678 0.1351 -0.4783
vn -0.8300 0.1995 -0.5208
vn -0.7178 0.2021 -0.6663
vn 0.7610 0.0245 0.6483
vn 0.1861 -0.0016 0.9825
vn -0.3277 0.1095 0.9384
vn -0.8306 0.1095 0.5461
vn -0.9983 -0.0016 0.0584
vn -0.9342 -0.1760 -0.3104
vn 0.7233 -0.0668 -0.6873
vn 0.3770 -0.1350 -0.9163
vn 0.0524 -0.1420 0.9885
vn -0.3859 -0.2011 0.9004
vn -0.7789 -0.2185 0.5878
vn -0.9692 -0.1852 0.1624
vt 0.851364 0.714917
vt 0.868167 0.670906
vt 0.915995 0.670906
vt 0.884948 0.752228
vt 0.851364 0.626895
vt 0.884948 0.589585
vt 0.810799 0.608665
vt 0.809993 0.555900
vt 0.770234 0.626895
vt 0.735039 0.589585
vt 0.738438 0.670906
vt 0.723492 0.670906
vt 0.796471 0.671198
vt 0.830959 0.682852
vt 0.830444 0.716586
vt 0.760048 0.695051
vt 0.810799 0.733147
vt 0.809993 0.785912
vt 0.878364 0.695051
vt 0.898213 0.643061
vt 0.917584 0.643061
vt 0.891650 0.710990
vt 0.878364 0.591070
vt 0.891650 0.575132
vt 0.830444 0.569535
vt 0.829040 0.546995
vt 0.782524 0.591070
vt 0.766429 0.575132
vt 0.829040 0.739127
vt 0.743954 0.710990
vt 0.923223 0.643061
vt 0.895152 0.716586
vt 0.895152 0.569535
vt 0.827383 0.539080
vt 0.759614 0.569535
vt 0.699889 0.643061
vt 0.737139 0.716586
vt 0.689412 0.643061
vt 0.827383 0.747042
vt 0.770018 0.944962
vt 0.801412 0.862731
vt 0.791401 0.862731
vt 0.762396 0.938703
vt 0.770018 0.780500
vt 0.762396 0.786760
vt 0.694225 0.746439
vt 0.692373 0.755291
vt 0.618433 0.780500
vt 0.622350 0.786760
vt 0.539919 0.862731
vt 0.593296 0.944962
vt 0.597213 0.938703
vt 0.547301 0.862731
vt 0.694225 0.979023
vt 0.692373 0.970171
vt 0.766596 0.862731
vt 0.744396 0.920877
vt 0.744396 0.804585
vt 0.690803 0.780500
vt 0.637209 0.804585
vt 0.612073 0.920877
vt 0.572657 0.862731
vt 0.690803 0.944962
vt 0.853015 0.958337
vt 0.881247 0.884389
vt 0.835050 0.884389
vt 0.819771 0.924409
vt 0.853015 0.810441
vt 0.819771 0.844368
vt 0.784856 0.779810
vt 0.782884 0.827791
vt 0.716697 0.810441
vt 0.745996 0.844368
vt 0.706198 0.884389
vt 0.716482 0.884389
vt 0.656326 0.894200
vt 0.637040 0.862731
vt 0.689252 0.907234
vt 0.784856 0.988968
vt 0.782884 0.940987
vt 0.700226 0.296538
vt 0.678356 0.353820
vt 0.625448 0.296538
vt 0.678356 0.239255
vt 0.625558 0.215528
vt 0.572761 0.239255
vt 0.531377 0.296538
vt 0.555347 0.353820
vt 0.625558 0.377548
vt 0.670446 0.154648
vt 0.690692 0.101619
vt 0.621461 0.101619
vt 0.670446 0.048589
vt 0.621569 0.026624
vt 0.572691 0.048589
vt 0.533583 0.101619
vt 0.566082 0.154648
vt 0.621569 0.176614
vt 0.784697 0.643061
vt 0.725848 0.643061
vt 0.717048 0.575207
vt 0.768926 0.575207
vt 0.691392 0.575207
vt 0.681272 0.575207
vt 0.538596 0.786845
vt 0.530815 0.786845
vt 0.564291 0.786845
vt 0.620308 0.786845
vt 0.775142 0.643061
vt 0.628953 0.862731
vt 0.772461 0.639693
vt 0.756366 0.623755
vt 0.749551 0.618158
vt 0.607178 0.834881
vt 0.611095 0.841140
vt 0.625955 0.858966
s 0
usemtl blinn1SG
f 7/7/3 8/8/3 16/9/3 15/10/3
f 8/8/4 9/11/4 17/12/4 16/9/4
f 9/11/5 10/13/5 18/14/5 17/12/5
f 10/13/6 11/15/6 19/16/6 18/14/6
f 11/15/7 12/17/7 65/18/7 19/16/7
f 13/19/8 14/20/8 22/21/8 21/22/8
f 14/23/9 7/7/9 15/10/9 22/24/9
f 15/25/10 16/26/10 24/27/10 23/28/10
f 16/26/11 17/29/11 25/30/11 24/27/11
f 17/29/12 18/31/12 26/32/12 25/30/12
f 18/31/13 19/33/13 27/34/13 26/32/13
f 21/22/14 22/21/14 30/35/14 29/36/14
f 22/21/15 15/25/15 23/28/15 30/35/15
f 23/28/16 24/27/16 32/37/16 31/38/16
f 24/27/17 25/30/17 33/39/17 32/37/17
f 25/30/18 26/32/18 34/40/18 33/39/18
f 26/32/19 27/34/19 35/41/19 34/40/19
f 28/42/20 29/36/20 37/43/20 36/44/20
f 29/36/21 30/35/21 38/45/21 37/43/21
f 30/35/22 23/28/22 31/38/22 38/45/22
f 31/46/23 32/47/23 40/48/23 39/49/23
f 32/47/24 33/50/24 41/51/24 40/48/24
f 33/50/25 34/52/25 42/53/25 41/51/25
f 34/52/26 35/54/26 43/55/26 42/53/26
f 36/56/27 37/57/27 45/58/27 44/59/27
f 37/57/28 38/60/28 46/61/28 45/58/28
f 38/60/29 31/46/29 39/49/29 46/61/29
f 39/49/30 40/48/30 48/62/30 47/63/30
f 40/48/31 41/51/31 49/64/31 48/62/31
f 41/51/32 42/53/32 50/65/32 49/64/32
f 42/53/33 43/55/33 51/66/33 50/65/33
f 44/59/34 45/58/34 53/67/34 52/68/34
f 45/58/35 46/61/35 54/69/35 53/67/35
f 46/61/36 39/49/36 47/63/36 54/69/36
f 47/70/37 48/71/37 56/72/37 55/73/37
f 48/71/38 49/74/38 57/75/38 56/72/38
f 49/74/39 50/76/39 58/77/39 57/75/39
f 50/76/40 51/78/40 59/79/40 58/77/40
f 51/78/41 66/80/41 60/81/41 59/79/41
f 52/68/42 53/67/42 61/82/42 60/83/42
f 53/67/43 54/69/43 62/84/43 61/82/43
f 54/85/44 47/70/44 55/73/44 62/86/44
f 8/87/45 7/88/45 63/89/45
f 9/90/46 8/87/46 63/89/46
f 10/91/47 9/90/47 63/89/47
f 11/92/48 10/91/48 63/89/48
f 12/93/49 11/92/49 63/89/49
f 13/94/50 12/93/50 63/89/50
f 14/95/51 13/94/51 63/89/51
f 7/88/52 14/95/52 63/89/52
f 55/96/53 56/97/53 64/98/53
f 56/97/54 57/99/54 64/98/54
f 57/99/55 58/100/55 64/98/55
f 58/100/56 59/101/56 64/98/56
f 59/101/57 60/102/57 64/98/57
f 60/102/58 61/103/58 64/98/58
f 61/103/59 62/104/59 64/98/59
f 62/104/60 55/96/60 64/98/60
f 12/105/61 20/106/61 68/107/61 67/108/61
f 20/106/62 28/42/62 69/109/62 68/107/62
f 28/42/63 36/44/63 70/110/63 69/109/63
f 36/56/64 44/59/64 71/111/64 70/112/64
f 44/59/65 52/68/65 72/113/65 71/111/65
f 52/68/66 60/83/66 73/114/66 72/113/66
f 19/33/67 65/115/67 12/105/67 67/108/67
f 66/116/68 51/66/68 73/114/68 60/83/68
f 27/34/69 19/33/69 74/117/69 75/118/69
f 35/41/70 27/34/70 75/118/70 76/119/70
f 43/55/71 35/54/71 76/120/71 77/121/71
f 51/66/72 43/55/72 77/121/72 78/122/72
